<svg xmlns="http://www.w3.org/2000/svg" viewBox="0 0 512 512">
  <defs>
    <linearGradient id="bg" x1="0%" y1="0%" x2="100%" y2="100%">
      <stop offset="0%" style="stop-color:#6366f1"/>
      <stop offset="100%" style="stop-color:#8b5cf6"/>
    </linearGradient>
  </defs>
  <rect width="512" height="512" rx="96" fill="url(#bg)"/>
  <g fill="white">
    <!-- Dollar sign -->
    <path d="M256 96c-8.8 0-16 7.2-16 16v24.4c-34.9 6.6-64 32.8-64 72.6 0 45.1 37.8 66.3 80 78.4v89c-19.3-3.2-36.4-13.8-46.8-28.3-5.9-8.2-17.3-10.1-25.5-4.2s-10.1 17.3-4.2 25.5c19.4 27 50.5 44 80.5 47.2V432c0 8.8 7.2 16 16 16s16-7.2 16-16v-15.4c41.4-6.2 80-35.3 80-86.6 0-50.1-41.5-73.5-80-84.4V160.2c13.8 2.3 26.6 9.1 35.5 19.1 6.2 6.9 16.9 7.5 23.8 1.3s7.5-16.9 1.3-23.8c-17.7-19.7-43.5-32.3-72.6-35.4V112c0-8.8-7.2-16-16-16zM208 209c0-19.4 16.2-34.5 32-39.8v77.2c-21.8-8.4-32-19.6-32-37.4zm96 121c0 25.7-21.8 43.6-48 48.8V295c27.8 9.8 48 23.1 48 35z"/>
    <!-- Chart bars -->
    <rect x="96" y="320" width="48" height="96" rx="8"/>
    <rect x="160" y="272" width="48" height="144" rx="8"/>
    <rect x="304" y="288" width="48" height="128" rx="8"/>
    <rect x="368" y="256" width="48" height="160" rx="8"/>
  </g>
</svg>
